<svg width="35" height="35" viewBox="0 0 35 35" fill="none" xmlns="http://www.w3.org/2000/svg">
<path d="M17.5 0C14.0388 0 10.6554 1.02636 7.77753 2.94928C4.89967 4.87221 2.65665 7.60533 1.33212 10.803C0.00758247 14.0007 -0.338976 17.5194 0.336265 20.9141C1.01151 24.3087 2.67822 27.4269 5.12564 29.8744C7.57306 32.3218 10.6913 33.9885 14.0859 34.6637C17.4806 35.339 20.9993 34.9924 24.197 33.6679C27.3947 32.3433 30.1278 30.1003 32.0507 27.2225C33.9736 24.3446 35 20.9612 35 17.5C35 15.2019 34.5474 12.9262 33.6679 10.803C32.7884 8.67984 31.4994 6.75065 29.8744 5.12563C28.2493 3.50061 26.3202 2.21157 24.197 1.33211C22.0738 0.452651 19.7981 0 17.5 0ZM22.75 19.25H19.25V22.75C19.25 23.2141 19.0656 23.6592 18.7374 23.9874C18.4093 24.3156 17.9641 24.5 17.5 24.5C17.0359 24.5 16.5908 24.3156 16.2626 23.9874C15.9344 23.6592 15.75 23.2141 15.75 22.75V19.25H12.25C11.7859 19.25 11.3408 19.0656 11.0126 18.7374C10.6844 18.4092 10.5 17.9641 10.5 17.5C10.5 17.0359 10.6844 16.5907 11.0126 16.2626C11.3408 15.9344 11.7859 15.75 12.25 15.75H15.75V12.25C15.75 11.7859 15.9344 11.3407 16.2626 11.0126C16.5908 10.6844 17.0359 10.5 17.5 10.5C17.9641 10.5 18.4093 10.6844 18.7374 11.0126C19.0656 11.3407 19.25 11.7859 19.25 12.25V15.75H22.75C23.2141 15.75 23.6593 15.9344 23.9874 16.2626C24.3156 16.5907 24.5 17.0359 24.5 17.5C24.5 17.9641 24.3156 18.4092 23.9874 18.7374C23.6593 19.0656 23.2141 19.25 22.75 19.25Z" fill="#6B8D89"/>
</svg>
